<?xml version='1.0' encoding='UTF-8' standalone='no'?>
<svg xmlns:xlink="http://www.w3.org/1999/xlink" xmlns="http://www.w3.org/2000/svg" height="191pt" width="255pt" viewBox="0 0 255 191">
 <title>Figure 2</title>
 <desc>
Creator: GL2PS 1.4.2, (C) 1999-2020 C. Geuzaine
For: Octave
CreationDate: Thu Dec 29 00:06:59 2022
</desc>
 <defs/>
 <polygon fill="#ffffff" points="0,0 255,0 255,191 0,191"/>
 <g>
  <polygon shape-rendering="crispEdges" fill="#ffffff" points="0,191 255,191 255,0 0,0"/>
  <clipPath id="cp00255191">
   <polygon points="0,191 255,191 255,0 0,0"/>
  </clipPath>
  <g clip-path="url(#cp00255191)">
   <polygon shape-rendering="crispEdges" fill="#ffffff" points="36.0025,160.196 231.327,160.196 231.327,19 36.0025,19"/>
   <polyline stroke="#262626" stroke-linejoin="miter" stroke-opacity="0.15" stroke-dasharray="16,0" fill="none" stroke-width="0.5" points="55.2649,160.196 55.2649,19" stroke-linecap="butt"/>
   <polyline stroke="#262626" stroke-linejoin="miter" stroke-opacity="0.15" stroke-dasharray="16,0" fill="none" stroke-width="0.5" points="83.1684,160.196 83.1684,19" stroke-linecap="butt"/>
   <polyline stroke="#262626" stroke-linejoin="miter" stroke-opacity="0.15" stroke-dasharray="16,0" fill="none" stroke-width="0.5" points="111.072,160.196 111.072,19" stroke-linecap="butt"/>
   <polyline stroke="#262626" stroke-linejoin="miter" stroke-opacity="0.15" stroke-dasharray="16,0" fill="none" stroke-width="0.5" points="138.976,160.196 138.976,19" stroke-linecap="butt"/>
   <polyline stroke="#262626" stroke-linejoin="miter" stroke-opacity="0.15" stroke-dasharray="16,0" fill="none" stroke-width="0.5" points="166.879,160.196 166.879,19" stroke-linecap="butt"/>
   <polyline stroke="#262626" stroke-linejoin="miter" stroke-opacity="0.15" stroke-dasharray="16,0" fill="none" stroke-width="0.5" points="194.783,160.196 194.783,19" stroke-linecap="butt"/>
   <polyline stroke="#262626" stroke-linejoin="miter" stroke-opacity="0.15" stroke-dasharray="16,0" fill="none" stroke-width="0.5" points="222.686,160.196 222.686,19" stroke-linecap="butt"/>
   <polyline stroke="#262626" stroke-linejoin="miter" fill="none" stroke-width="0.5" points="55.2649,160.196 55.2649,158.24" stroke-linecap="butt"/>
   <polyline stroke="#262626" stroke-linejoin="miter" fill="none" stroke-width="0.5" points="55.2649,19 55.2649,20.956" stroke-linecap="butt"/>
   <polyline stroke="#262626" stroke-linejoin="miter" fill="none" stroke-width="0.5" points="83.1684,160.196 83.1684,158.24" stroke-linecap="butt"/>
   <polyline stroke="#262626" stroke-linejoin="miter" fill="none" stroke-width="0.5" points="83.1684,19 83.1684,20.956" stroke-linecap="butt"/>
   <polyline stroke="#262626" stroke-linejoin="miter" fill="none" stroke-width="0.5" points="111.072,160.196 111.072,158.24" stroke-linecap="butt"/>
   <polyline stroke="#262626" stroke-linejoin="miter" fill="none" stroke-width="0.5" points="111.072,19 111.072,20.956" stroke-linecap="butt"/>
   <polyline stroke="#262626" stroke-linejoin="miter" fill="none" stroke-width="0.5" points="138.976,160.196 138.976,158.24" stroke-linecap="butt"/>
   <polyline stroke="#262626" stroke-linejoin="miter" fill="none" stroke-width="0.5" points="138.976,19 138.976,20.956" stroke-linecap="butt"/>
   <polyline stroke="#262626" stroke-linejoin="miter" fill="none" stroke-width="0.5" points="166.879,160.196 166.879,158.24" stroke-linecap="butt"/>
   <polyline stroke="#262626" stroke-linejoin="miter" fill="none" stroke-width="0.5" points="166.879,19 166.879,20.956" stroke-linecap="butt"/>
   <polyline stroke="#262626" stroke-linejoin="miter" fill="none" stroke-width="0.5" points="194.783,160.196 194.783,158.24" stroke-linecap="butt"/>
   <polyline stroke="#262626" stroke-linejoin="miter" fill="none" stroke-width="0.5" points="194.783,19 194.783,20.956" stroke-linecap="butt"/>
   <polyline stroke="#262626" stroke-linejoin="miter" fill="none" stroke-width="0.5" points="222.686,160.196 222.686,158.24" stroke-linecap="butt"/>
   <polyline stroke="#262626" stroke-linejoin="miter" fill="none" stroke-width="0.5" points="222.686,19 222.686,20.956" stroke-linecap="butt"/>
   <g font-weight="normal" font-size="10" transform="translate(47.7649,175.706) rotate(-0,7.5,-8)" xml:space="preserve" font-family="FreeSans" font-style="normal">
    <text x="0 3 9 " y="-0" fill="rgb(38,38,38)">-20</text>
   </g>
   <g font-weight="normal" font-size="10" transform="translate(75.6684,175.706) rotate(-0,7.5,-8)" xml:space="preserve" font-family="FreeSans" font-style="normal">
    <text x="0 3 9 " y="-0" fill="rgb(38,38,38)">-15</text>
   </g>
   <g font-weight="normal" font-size="10" transform="translate(103.572,175.706) rotate(-0,7.5,-8)" xml:space="preserve" font-family="FreeSans" font-style="normal">
    <text x="0 3 9 " y="-0" fill="rgb(38,38,38)">-10</text>
   </g>
   <g font-weight="normal" font-size="10" transform="translate(134.476,175.706) rotate(-0,4.5,-8)" xml:space="preserve" font-family="FreeSans" font-style="normal">
    <text x="0 3 " y="-0" fill="rgb(38,38,38)">-5</text>
   </g>
   <g font-weight="normal" font-size="10" transform="translate(163.879,175.706) rotate(-0,3,-8)" xml:space="preserve" font-family="FreeSans" font-style="normal">
    <text x="0 " y="-0" fill="rgb(38,38,38)">0</text>
   </g>
   <g font-weight="normal" font-size="10" transform="translate(191.783,175.706) rotate(-0,3,-8)" xml:space="preserve" font-family="FreeSans" font-style="normal">
    <text x="0 " y="-0" fill="rgb(38,38,38)">5</text>
   </g>
   <g font-weight="normal" font-size="10" transform="translate(216.686,175.706) rotate(-0,6,-8)" xml:space="preserve" font-family="FreeSans" font-style="normal">
    <text x="0 6 " y="-0" fill="rgb(38,38,38)">10</text>
   </g>
   <polyline stroke="#262626" stroke-linejoin="miter" stroke-opacity="0.15" stroke-dasharray="16,0" fill="none" stroke-width="0.5" points="36.0025,138.777 231.327,138.777" stroke-linecap="butt"/>
   <polyline stroke="#262626" stroke-linejoin="miter" stroke-opacity="0.15" stroke-dasharray="16,0" fill="none" stroke-width="0.5" points="36.0025,103.478 231.327,103.478" stroke-linecap="butt"/>
   <polyline stroke="#262626" stroke-linejoin="miter" stroke-opacity="0.15" stroke-dasharray="16,0" fill="none" stroke-width="0.5" points="36.0025,68.1794 231.327,68.1794" stroke-linecap="butt"/>
   <polyline stroke="#262626" stroke-linejoin="miter" stroke-opacity="0.15" stroke-dasharray="16,0" fill="none" stroke-width="0.5" points="36.0025,32.8804 231.327,32.8804" stroke-linecap="butt"/>
   <polyline stroke="#262626" stroke-linejoin="miter" fill="none" stroke-width="0.5" points="36.0025,138.777 37.959,138.777" stroke-linecap="butt"/>
   <polyline stroke="#262626" stroke-linejoin="miter" fill="none" stroke-width="0.5" points="231.327,138.777 229.371,138.777" stroke-linecap="butt"/>
   <polyline stroke="#262626" stroke-linejoin="miter" fill="none" stroke-width="0.5" points="36.0025,103.478 37.959,103.478" stroke-linecap="butt"/>
   <polyline stroke="#262626" stroke-linejoin="miter" fill="none" stroke-width="0.5" points="231.327,103.478 229.371,103.478" stroke-linecap="butt"/>
   <polyline stroke="#262626" stroke-linejoin="miter" fill="none" stroke-width="0.5" points="36.0025,68.1794 37.959,68.1794" stroke-linecap="butt"/>
   <polyline stroke="#262626" stroke-linejoin="miter" fill="none" stroke-width="0.5" points="231.327,68.1794 229.371,68.1794" stroke-linecap="butt"/>
   <polyline stroke="#262626" stroke-linejoin="miter" fill="none" stroke-width="0.5" points="36.0025,32.8804 37.959,32.8804" stroke-linecap="butt"/>
   <polyline stroke="#262626" stroke-linejoin="miter" fill="none" stroke-width="0.5" points="231.327,32.8804 229.371,32.8804" stroke-linecap="butt"/>
   <g font-weight="normal" font-size="10" transform="translate(15.9941,142.777) rotate(-0,15,-4)" xml:space="preserve" font-family="FreeSans" font-style="normal">
    <text x="0 3 9 " y="-0" fill="rgb(38,38,38)">-10</text>
   </g>
   <g font-weight="normal" font-size="10" transform="translate(24.9941,107.478) rotate(-0,6,-4)" xml:space="preserve" font-family="FreeSans" font-style="normal">
    <text x="0 " y="-0" fill="rgb(38,38,38)">0</text>
   </g>
   <g font-weight="normal" font-size="10" transform="translate(18.9941,72.1794) rotate(-0,12,-4)" xml:space="preserve" font-family="FreeSans" font-style="normal">
    <text x="0 6 " y="-0" fill="rgb(38,38,38)">10</text>
   </g>
   <g font-weight="normal" font-size="10" transform="translate(18.9941,36.8804) rotate(-0,12,-4)" xml:space="preserve" font-family="FreeSans" font-style="normal">
    <text x="0 6 " y="-0" fill="rgb(38,38,38)">20</text>
   </g>
   <polyline stroke="#262626" stroke-linejoin="miter" stroke-dasharray="16,0" fill="none" stroke-width="0.5" points="36.0025,160.196 231.327,160.196" stroke-linecap="square"/>
   <polyline stroke="#262626" stroke-linejoin="miter" stroke-dasharray="16,0" fill="none" stroke-width="0.5" points="36.0025,19 231.327,19" stroke-linecap="square"/>
   <polyline stroke="#262626" stroke-linejoin="miter" stroke-dasharray="16,0" fill="none" stroke-width="0.5" points="36.0025,160.196 36.0025,19" stroke-linecap="square"/>
   <polyline stroke="#262626" stroke-linejoin="miter" stroke-dasharray="16,0" fill="none" stroke-width="0.5" points="231.327,160.196 231.327,19" stroke-linecap="square"/>
   <g font-weight="normal" font-size="11" transform="translate(59.6648,191.706) rotate(-0,74,-11)" xml:space="preserve" font-family="FreeSans" font-style="normal">
    <text x="0 8 14 20 22 25 32 37 39 44 47 50 53 56 59 65 71 73 79 82 88 91 94 100 103 106 112 118 121 127 133 139 145 " y="-2" fill="rgb(38,38,38)">Real Axis     gain = [0, 87.8125]</text>
   </g>
   <g font-weight="normal" font-size="11" transform="translate(-23.5059,89.598) rotate(-90,34.5,0)" xml:space="preserve" font-family="FreeSans" font-style="normal">
    <text x="0 3 12 18 24 26 32 38 42 47 50 57 62 64 " y="-2" fill="rgb(38,38,38)">Imaginary Axis</text>
   </g>
   <g font-weight="bold" font-size="11" transform="translate(90.1648,9) rotate(-0,43.5,0)" xml:space="preserve" font-family="FreeSans" font-style="normal">
    <text x="0 8 15 22 26 29 36 43 49 56 62 65 72 76 79 " y="-0" fill="rgb(0,0,0)">Root Locus of G</text>
   </g>
   <polyline stroke="#000000" stroke-linejoin="round" stroke-dasharray="9,7" fill="none" stroke-width="0.5" points="138.976,103.478 216.215,18.8588" stroke-linecap="butt"/>
   <polyline stroke="#000000" stroke-linejoin="round" stroke-dasharray="9,7" fill="none" stroke-width="0.5" points="138.976,103.478 35.8072,103.478" stroke-linecap="butt"/>
   <polyline stroke="#000000" stroke-linejoin="round" stroke-dasharray="9,7" fill="none" stroke-width="0.5" points="138.976,103.478 190.875,160.337" stroke-linecap="butt"/>
   <polyline stroke="#0000ff" stroke-linejoin="round" fill="none" stroke-width="2" points="111.072,103.478 110.641,103.478 110.536,103.478 110.432,103.478 110.329,103.478 110.227,103.478 110.126,103.478 110.026,103.478 109.927,103.478 109.829,103.478 109.732,103.478 109.636,103.478 109.54,103.478 109.516,103.478 109.492,103.478 109.469,103.478 109.445,103.478 109.409,103.478 109.373,103.478 109.338,103.478 109.302,103.478 109.161,103.478 109.021,103.478 108.883,103.478 108.747,103.478 108.612,103.478 108.479,103.478 108.348,103.478 108.218,103.478 108.089,103.478 107.962,103.478 107.836,103.478 107.344,103.478 106.872,103.478 106.416,103.478 105.976,103.478 105.55,103.478 105.138,103.478 104.737,103.478 104.347,103.478 103.968,103.478 103.599,103.478 103.239,103.478 102.887,103.478 102.544,103.478 102.153,103.478 101.773,103.478 101.401,103.478 101.038,103.478 100.682,103.478 100.335,103.478 99.9945,103.478 99.6608,103.478 99.3336,103.478 99.0126,103.478 98.6975,103.478 98.3879,103.478 98.0837,103.478 97.7846,103.478 97.4905,103.478 97.201,103.478 96.916,103.478 96.6354,103.478 96.3589,103.478 96.0865,103.478 95.0341,103.478 94.0357,103.478 93.0846,103.478 92.1756,103.478 91.3042,103.478 90.4668,103.478 89.66,103.478 88.8812,103.478 88.1281,103.478 87.3985,103.478 86.6908,103.478 86.0033,103.478 85.3347,103.478 84.6836,103.478 84.0489,103.478 83.4297,103.478 82.825,103.478 82.234,103.478 81.6558,103.478 81.09,103.478 80.5357,103.478 79.9924,103.478 79.4596,103.478 78.9367,103.478 78.4234,103.478 77.9192,103.478 77.4236,103.478 76.9364,103.478 76.4572,103.478 75.9856,103.478 75.5214,103.478 75.0642,103.478 74.6139,103.478 74.1701,103.478 73.7326,103.478 73.3013,103.478 72.8758,103.478 72.456,103.478 72.0417,103.478 71.6327,103.478 71.2289,103.478 70.8301,103.478 70.4361,103.478 70.0468,103.478 69.6621,103.478 69.2818,103.478 68.9057,103.478 68.5339,103.478 68.1661,103.478 67.8023,103.478 67.4423,103.478 67.0861,103.478 66.7335,103.478 66.3844,103.478 66.0389,103.478 65.6967,103.478 65.3578,103.478 65.0221,103.478 64.6896,103.478 63.3895,103.478 62.1343,103.478 60.9204,103.478 59.7443,103.478 58.6034,103.478 57.495,103.478 56.417,103.478 55.3673,103.478 54.3441,103.478 53.3458,103.478 52.371,103.478 51.4182,103.478" stroke-linecap="butt"/>
   <polyline stroke="#0000ff" stroke-linejoin="round" fill="none" stroke-width="2" points="144.556,103.478 145.939,103.478 146.309,103.478 146.691,103.478 147.088,103.478 147.503,103.478 147.939,103.478 148.401,103.478 148.897,103.478 149.438,103.478 150.042,103.478 150.747,103.478 151.646,103.478 151.933,103.478 152.271,103.478 152.706,103.478 153.741,103.478 153.759,104.277 153.777,104.607 153.794,104.86 153.812,105.073 153.883,105.729 153.953,106.229 154.022,106.649 154.09,107.016 154.157,107.347 154.224,107.649 154.289,107.929 154.354,108.191 154.419,108.437 154.482,108.67 154.545,108.892 154.791,109.688 155.027,110.377 155.255,110.99 155.475,111.546 155.688,112.056 155.894,112.528 156.095,112.97 156.29,113.385 156.479,113.777 156.664,114.149 156.844,114.503 157.02,114.842 157.191,115.166 157.387,115.527 157.577,115.873 157.763,116.205 157.944,116.525 158.122,116.832 158.296,117.13 158.466,117.417 158.633,117.695 158.796,117.965 158.957,118.228 159.115,118.483 159.269,118.731 159.421,118.973 159.571,119.209 159.718,119.439 159.863,119.664 160.005,119.884 160.146,120.099 160.284,120.31 160.42,120.516 160.946,121.303 161.445,122.035 161.921,122.72 162.375,123.366 162.811,123.978 163.23,124.559 163.633,125.114 164.023,125.644 164.399,126.153 164.764,126.642 165.118,127.113 165.462,127.568 165.796,128.008 166.121,128.434 166.439,128.848 166.748,129.249 167.051,129.639 167.346,130.019 167.635,130.389 167.918,130.75 168.195,131.103 168.467,131.447 168.734,131.784 168.995,132.113 169.252,132.436 169.504,132.752 169.751,133.061 169.995,133.365 170.235,133.663 170.47,133.956 170.703,134.244 170.931,134.526 171.156,134.804 171.378,135.078 171.597,135.347 171.813,135.611 172.025,135.872 172.235,136.129 172.442,136.382 172.647,136.631 172.849,136.877 173.048,137.12 173.245,137.359 173.44,137.595 173.632,137.828 173.822,138.059 174.01,138.286 174.196,138.51 174.38,138.732 174.562,138.951 174.742,139.168 174.92,139.382 175.097,139.594 175.271,139.803 175.444,140.01 175.615,140.215 175.784,140.418 175.952,140.619 176.118,140.817 176.769,141.592 177.396,142.338 178.003,143.057 178.591,143.752 179.162,144.425 179.716,145.077 180.255,145.71 180.78,146.325 181.291,146.924 181.79,147.507 182.278,148.075 182.754,148.63" stroke-linecap="butt"/>
   <polyline stroke="#0000ff" stroke-linejoin="round" fill="none" stroke-width="2" points="161.298,103.478 160.347,103.478 160.082,103.478 159.804,103.478 159.509,103.478 159.196,103.478 158.861,103.478 158.499,103.478 158.102,103.478 157.66,103.478 157.152,103.478 156.544,103.478 155.74,103.478 155.477,103.478 155.164,103.478 154.751,103.478 153.741,103.478 153.759,102.68 153.777,102.35 153.794,102.097 153.812,101.884 153.883,101.228 153.953,100.727 154.022,100.308 154.09,99.9403 154.157,99.6098 154.224,99.3075 154.289,99.0276 154.354,98.766 154.419,98.5198 154.482,98.2868 154.545,98.0652 154.791,97.269 155.027,96.5796 155.255,95.9663 155.475,95.4107 155.688,94.9008 155.894,94.4282 156.095,93.9868 156.29,93.5719 156.479,93.1799 156.664,92.808 156.844,92.4537 157.02,92.1152 157.191,91.7908 157.387,91.4293 157.577,91.0833 157.763,90.7514 157.944,90.4321 158.122,90.1243 158.296,89.8272 158.466,89.5398 158.633,89.2614 158.796,88.9914 158.957,88.7291 159.115,88.4741 159.269,88.2258 159.421,87.9839 159.571,87.748 159.718,87.5177 159.863,87.2928 160.005,87.0728 160.146,86.8576 160.284,86.6469 160.42,86.4406 160.946,85.6541 161.445,84.9221 161.921,84.2364 162.375,83.5903 162.811,82.9787 163.23,82.3974 163.633,81.843 164.023,81.3127 164.399,80.8039 164.764,80.3148 165.118,79.8435 165.462,79.3885 165.796,78.9486 166.121,78.5225 166.439,78.1092 166.748,77.7078 167.051,77.3175 167.346,76.9376 167.635,76.5675 167.918,76.2064 168.195,75.854 168.467,75.5097 168.734,75.173 168.995,74.8436 169.252,74.5211 169.504,74.2051 169.751,73.8954 169.995,73.5916 170.235,73.2934 170.47,73.0006 170.703,72.713 170.931,72.4304 171.156,72.1525 171.378,71.8792 171.597,71.6102 171.813,71.3454 172.025,71.0847 172.235,70.8279 172.442,70.5748 172.647,70.3254 172.849,70.0794 173.048,69.8368 173.245,69.5975 173.44,69.3614 173.632,69.1283 173.822,68.8981 174.01,68.6709 174.196,68.4464 174.38,68.2246 174.562,68.0054 174.742,67.7888 174.92,67.5747 175.097,67.363 175.271,67.1536 175.444,66.9465 175.615,66.7415 175.784,66.5388 175.952,66.3382 176.118,66.1396 176.769,65.3647 177.396,64.6189 178.003,63.8996 178.591,63.2045 179.162,62.5318 179.716,61.8796 180.255,61.2467 180.78,60.6315 181.291,60.0329 181.79,59.4499 182.278,58.8814 182.754,58.3266" stroke-linecap="butt"/>
   <polyline stroke="#ff0000" stroke-linejoin="miter" fill="none" stroke-width="0.5" points="108.072,100.478 114.072,106.478" stroke-linecap="square"/>
   <polyline stroke="#ff0000" stroke-linejoin="miter" fill="none" stroke-width="0.5" points="108.072,106.478 114.072,100.478" stroke-linecap="square"/>
   <polyline stroke="#ff0000" stroke-linejoin="miter" fill="none" stroke-width="0.5" points="141.556,100.478 147.556,106.478" stroke-linecap="square"/>
   <polyline stroke="#ff0000" stroke-linejoin="miter" fill="none" stroke-width="0.5" points="141.556,106.478 147.556,100.478" stroke-linecap="square"/>
   <polyline stroke="#ff0000" stroke-linejoin="miter" fill="none" stroke-width="0.5" points="158.298,100.478 164.298,106.478" stroke-linecap="square"/>
   <polyline stroke="#ff0000" stroke-linejoin="miter" fill="none" stroke-width="0.5" points="158.298,106.478 164.298,100.478" stroke-linecap="square"/>
  </g>
  <clipPath id="cp00255191">
   <polygon points="0,191 255,191 255,0 0,0"/>
  </clipPath>
  <g clip-path="url(#cp00255191)">
   <polygon shape-rendering="crispEdges" fill="#ffffff" points="103.602,99.8419 218.182,99.8419 218.182,32.145 103.602,32.145"/>
   <polyline stroke="#262626" stroke-linejoin="miter" stroke-dasharray="16,0" fill="none" stroke-width="0.5" points="103.602,99.8419 218.182,99.8419" stroke-linecap="square"/>
   <polyline stroke="#262626" stroke-linejoin="miter" stroke-dasharray="16,0" fill="none" stroke-width="0.5" points="103.602,32.145 218.182,32.145" stroke-linecap="square"/>
   <polyline stroke="#262626" stroke-linejoin="miter" stroke-dasharray="16,0" fill="none" stroke-width="0.5" points="103.602,99.8419 103.602,32.145" stroke-linecap="square"/>
   <polyline stroke="#262626" stroke-linejoin="miter" stroke-dasharray="16,0" fill="none" stroke-width="0.5" points="218.182,99.8419 218.182,32.145" stroke-linecap="square"/>
   <polyline stroke="#000000" stroke-linejoin="round" stroke-dasharray="9,7" fill="none" stroke-width="0.5" points="110.175,45.6187 143.037,45.6187" stroke-linecap="butt"/>
   <g font-weight="normal" font-size="9" transform="translate(149.61,50.1187) rotate(-0,-0,-4.5)" xml:space="preserve" font-family="FreeSans" font-style="normal">
    <text x="0 5 9 13 20 25 28 33 36 41 " y="-2" fill="rgb(0,0,0)">asymptotes</text>
   </g>
   <polyline stroke="#0000ff" stroke-linejoin="round" fill="none" stroke-width="2" points="110.175,65.9934 143.037,65.9934" stroke-linecap="butt"/>
   <g font-weight="normal" font-size="9" transform="translate(149.61,70.4934) rotate(-0,-0,-4.5)" xml:space="preserve" font-family="FreeSans" font-style="normal">
    <text x="0 2 7 12 17 " y="-1" fill="rgb(0,0,0)">locus</text>
   </g>
   <polyline stroke="#ff0000" stroke-linejoin="miter" fill="none" stroke-width="0.5" points="123.606,83.3682 129.606,89.3682" stroke-linecap="square"/>
   <polyline stroke="#ff0000" stroke-linejoin="miter" fill="none" stroke-width="0.5" points="123.606,89.3682 129.606,83.3682" stroke-linecap="square"/>
   <g font-weight="normal" font-size="9" transform="translate(149.61,91.3682) rotate(-0,-0,-5)" xml:space="preserve" font-family="FreeSans" font-style="normal">
    <text x="0 5 10 15 20 22 24 29 34 39 41 46 51 53 58 " y="-2" fill="rgb(0,0,0)">open loop poles</text>
   </g>
  </g>
 </g>
</svg>
